<mxfile host="app.diagrams.net" modified="2024-03-23T10:51:53.895Z" agent="Mozilla/5.0 (Windows NT 10.0; Win64; x64) AppleWebKit/537.36 (KHTML, like Gecko) Chrome/123.0.0.0 Safari/537.36" etag="xKzq7PCBJf2-Pnj_FNQD" version="24.0.7" type="device">
  <diagram name="Page-1" id="col7ZlXN_MJUNjug7xue">
    <mxGraphModel dx="1674" dy="746" grid="1" gridSize="10" guides="1" tooltips="1" connect="1" arrows="1" fold="1" page="1" pageScale="1" pageWidth="827" pageHeight="1169" math="0" shadow="0">
      <root>
        <mxCell id="0" />
        <mxCell id="1" parent="0" />
        <mxCell id="Ce9-pHVRbCDx5V6s-bzh-1" value="trainer" style="swimlane;fontStyle=0;childLayout=stackLayout;horizontal=1;startSize=26;horizontalStack=0;resizeParent=1;resizeParentMax=0;resizeLast=0;collapsible=1;marginBottom=0;align=center;fontSize=14;" vertex="1" parent="1">
          <mxGeometry x="1490" y="379" width="160" height="206" as="geometry" />
        </mxCell>
        <mxCell id="Ce9-pHVRbCDx5V6s-bzh-2" value="id" style="text;strokeColor=none;fillColor=none;spacingLeft=4;spacingRight=4;overflow=hidden;rotatable=0;points=[[0,0.5],[1,0.5]];portConstraint=eastwest;fontSize=12;whiteSpace=wrap;html=1;" vertex="1" parent="Ce9-pHVRbCDx5V6s-bzh-1">
          <mxGeometry y="26" width="160" height="30" as="geometry" />
        </mxCell>
        <mxCell id="Ce9-pHVRbCDx5V6s-bzh-3" value="name" style="text;strokeColor=none;fillColor=none;spacingLeft=4;spacingRight=4;overflow=hidden;rotatable=0;points=[[0,0.5],[1,0.5]];portConstraint=eastwest;fontSize=12;whiteSpace=wrap;html=1;" vertex="1" parent="Ce9-pHVRbCDx5V6s-bzh-1">
          <mxGeometry y="56" width="160" height="30" as="geometry" />
        </mxCell>
        <mxCell id="Ce9-pHVRbCDx5V6s-bzh-4" value="subject" style="text;strokeColor=none;fillColor=none;spacingLeft=4;spacingRight=4;overflow=hidden;rotatable=0;points=[[0,0.5],[1,0.5]];portConstraint=eastwest;fontSize=12;whiteSpace=wrap;html=1;" vertex="1" parent="Ce9-pHVRbCDx5V6s-bzh-1">
          <mxGeometry y="86" width="160" height="30" as="geometry" />
        </mxCell>
        <mxCell id="Ce9-pHVRbCDx5V6s-bzh-5" value="block" style="text;strokeColor=none;fillColor=none;spacingLeft=4;spacingRight=4;overflow=hidden;rotatable=0;points=[[0,0.5],[1,0.5]];portConstraint=eastwest;fontSize=12;whiteSpace=wrap;html=1;" vertex="1" parent="Ce9-pHVRbCDx5V6s-bzh-1">
          <mxGeometry y="116" width="160" height="30" as="geometry" />
        </mxCell>
        <mxCell id="Ce9-pHVRbCDx5V6s-bzh-6" value="email" style="text;strokeColor=none;fillColor=none;spacingLeft=4;spacingRight=4;overflow=hidden;rotatable=0;points=[[0,0.5],[1,0.5]];portConstraint=eastwest;fontSize=12;whiteSpace=wrap;html=1;" vertex="1" parent="Ce9-pHVRbCDx5V6s-bzh-1">
          <mxGeometry y="146" width="160" height="30" as="geometry" />
        </mxCell>
        <mxCell id="Ce9-pHVRbCDx5V6s-bzh-47" value="num_of_courses" style="text;strokeColor=none;fillColor=none;spacingLeft=4;spacingRight=4;overflow=hidden;rotatable=0;points=[[0,0.5],[1,0.5]];portConstraint=eastwest;fontSize=12;whiteSpace=wrap;html=1;" vertex="1" parent="Ce9-pHVRbCDx5V6s-bzh-1">
          <mxGeometry y="176" width="160" height="30" as="geometry" />
        </mxCell>
        <mxCell id="Ce9-pHVRbCDx5V6s-bzh-7" value="student" style="shape=table;startSize=30;container=1;collapsible=0;childLayout=tableLayout;" vertex="1" parent="1">
          <mxGeometry x="400" y="60" width="400" height="100" as="geometry" />
        </mxCell>
        <mxCell id="Ce9-pHVRbCDx5V6s-bzh-8" value="" style="shape=tableRow;horizontal=0;startSize=0;swimlaneHead=0;swimlaneBody=0;strokeColor=inherit;top=0;left=0;bottom=0;right=0;collapsible=0;dropTarget=0;fillColor=none;points=[[0,0.5],[1,0.5]];portConstraint=eastwest;" vertex="1" parent="Ce9-pHVRbCDx5V6s-bzh-7">
          <mxGeometry y="30" width="400" height="70" as="geometry" />
        </mxCell>
        <mxCell id="Ce9-pHVRbCDx5V6s-bzh-9" value="id&lt;div&gt;INT&lt;/div&gt;" style="shape=partialRectangle;html=1;whiteSpace=wrap;connectable=0;strokeColor=inherit;overflow=hidden;fillColor=none;top=0;left=0;bottom=0;right=0;pointerEvents=1;" vertex="1" parent="Ce9-pHVRbCDx5V6s-bzh-8">
          <mxGeometry width="67" height="70" as="geometry">
            <mxRectangle width="67" height="70" as="alternateBounds" />
          </mxGeometry>
        </mxCell>
        <mxCell id="Ce9-pHVRbCDx5V6s-bzh-10" value="name&lt;div&gt;CHAR&lt;/div&gt;" style="shape=partialRectangle;html=1;whiteSpace=wrap;connectable=0;strokeColor=inherit;overflow=hidden;fillColor=none;top=0;left=0;bottom=0;right=0;pointerEvents=1;" vertex="1" parent="Ce9-pHVRbCDx5V6s-bzh-8">
          <mxGeometry x="67" width="66" height="70" as="geometry">
            <mxRectangle width="66" height="70" as="alternateBounds" />
          </mxGeometry>
        </mxCell>
        <mxCell id="Ce9-pHVRbCDx5V6s-bzh-11" value="course&lt;div&gt;CHAR&lt;/div&gt;" style="shape=partialRectangle;html=1;whiteSpace=wrap;connectable=0;strokeColor=inherit;overflow=hidden;fillColor=none;top=0;left=0;bottom=0;right=0;pointerEvents=1;" vertex="1" parent="Ce9-pHVRbCDx5V6s-bzh-8">
          <mxGeometry x="133" width="67" height="70" as="geometry">
            <mxRectangle width="67" height="70" as="alternateBounds" />
          </mxGeometry>
        </mxCell>
        <mxCell id="Ce9-pHVRbCDx5V6s-bzh-12" value="active&lt;div&gt;BOOL&lt;/div&gt;" style="shape=partialRectangle;html=1;whiteSpace=wrap;connectable=0;strokeColor=inherit;overflow=hidden;fillColor=none;top=0;left=0;bottom=0;right=0;pointerEvents=1;" vertex="1" parent="Ce9-pHVRbCDx5V6s-bzh-8">
          <mxGeometry x="200" width="67" height="70" as="geometry">
            <mxRectangle width="67" height="70" as="alternateBounds" />
          </mxGeometry>
        </mxCell>
        <mxCell id="Ce9-pHVRbCDx5V6s-bzh-13" value="package&lt;div&gt;CHAR&lt;/div&gt;" style="shape=partialRectangle;html=1;whiteSpace=wrap;connectable=0;strokeColor=inherit;overflow=hidden;fillColor=none;top=0;left=0;bottom=0;right=0;pointerEvents=1;" vertex="1" parent="Ce9-pHVRbCDx5V6s-bzh-8">
          <mxGeometry x="267" width="66" height="70" as="geometry">
            <mxRectangle width="66" height="70" as="alternateBounds" />
          </mxGeometry>
        </mxCell>
        <mxCell id="Ce9-pHVRbCDx5V6s-bzh-14" value="email&lt;div&gt;CHAR&lt;/div&gt;" style="shape=partialRectangle;html=1;whiteSpace=wrap;connectable=0;strokeColor=inherit;overflow=hidden;fillColor=none;top=0;left=0;bottom=0;right=0;pointerEvents=1;" vertex="1" parent="Ce9-pHVRbCDx5V6s-bzh-8">
          <mxGeometry x="333" width="67" height="70" as="geometry">
            <mxRectangle width="67" height="70" as="alternateBounds" />
          </mxGeometry>
        </mxCell>
        <mxCell id="Ce9-pHVRbCDx5V6s-bzh-30" value="course" style="shape=table;startSize=30;container=1;collapsible=0;childLayout=tableLayout;" vertex="1" parent="1">
          <mxGeometry x="1070" y="60" width="400" height="70" as="geometry" />
        </mxCell>
        <mxCell id="Ce9-pHVRbCDx5V6s-bzh-31" value="" style="shape=tableRow;horizontal=0;startSize=0;swimlaneHead=0;swimlaneBody=0;strokeColor=inherit;top=0;left=0;bottom=0;right=0;collapsible=0;dropTarget=0;fillColor=none;points=[[0,0.5],[1,0.5]];portConstraint=eastwest;" vertex="1" parent="Ce9-pHVRbCDx5V6s-bzh-30">
          <mxGeometry y="30" width="400" height="40" as="geometry" />
        </mxCell>
        <mxCell id="Ce9-pHVRbCDx5V6s-bzh-32" value="id&lt;div&gt;INT&lt;/div&gt;" style="shape=partialRectangle;html=1;whiteSpace=wrap;connectable=0;strokeColor=inherit;overflow=hidden;fillColor=none;top=0;left=0;bottom=0;right=0;pointerEvents=1;" vertex="1" parent="Ce9-pHVRbCDx5V6s-bzh-31">
          <mxGeometry width="80" height="40" as="geometry">
            <mxRectangle width="80" height="40" as="alternateBounds" />
          </mxGeometry>
        </mxCell>
        <mxCell id="Ce9-pHVRbCDx5V6s-bzh-33" value="name&lt;div&gt;CHAR&lt;/div&gt;" style="shape=partialRectangle;html=1;whiteSpace=wrap;connectable=0;strokeColor=inherit;overflow=hidden;fillColor=none;top=0;left=0;bottom=0;right=0;pointerEvents=1;" vertex="1" parent="Ce9-pHVRbCDx5V6s-bzh-31">
          <mxGeometry x="80" width="80" height="40" as="geometry">
            <mxRectangle width="80" height="40" as="alternateBounds" />
          </mxGeometry>
        </mxCell>
        <mxCell id="Ce9-pHVRbCDx5V6s-bzh-34" value="start_date&lt;div&gt;DATE&lt;/div&gt;" style="shape=partialRectangle;html=1;whiteSpace=wrap;connectable=0;strokeColor=inherit;overflow=hidden;fillColor=none;top=0;left=0;bottom=0;right=0;pointerEvents=1;" vertex="1" parent="Ce9-pHVRbCDx5V6s-bzh-31">
          <mxGeometry x="160" width="60" height="40" as="geometry">
            <mxRectangle width="60" height="40" as="alternateBounds" />
          </mxGeometry>
        </mxCell>
        <mxCell id="Ce9-pHVRbCDx5V6s-bzh-35" value="end_date&lt;div&gt;DATE&lt;/div&gt;" style="shape=partialRectangle;html=1;whiteSpace=wrap;connectable=0;strokeColor=inherit;overflow=hidden;fillColor=none;top=0;left=0;bottom=0;right=0;pointerEvents=1;" vertex="1" parent="Ce9-pHVRbCDx5V6s-bzh-31">
          <mxGeometry x="220" width="60" height="40" as="geometry">
            <mxRectangle width="60" height="40" as="alternateBounds" />
          </mxGeometry>
        </mxCell>
        <mxCell id="Ce9-pHVRbCDx5V6s-bzh-36" value="number_of_students&lt;div&gt;INT&lt;/div&gt;" style="shape=partialRectangle;html=1;whiteSpace=wrap;connectable=0;strokeColor=inherit;overflow=hidden;fillColor=none;top=0;left=0;bottom=0;right=0;pointerEvents=1;" vertex="1" parent="Ce9-pHVRbCDx5V6s-bzh-31">
          <mxGeometry x="280" width="120" height="40" as="geometry">
            <mxRectangle width="120" height="40" as="alternateBounds" />
          </mxGeometry>
        </mxCell>
        <mxCell id="Ce9-pHVRbCDx5V6s-bzh-37" value="student_course_signup" style="shape=table;startSize=30;container=1;collapsible=0;childLayout=tableLayout;" vertex="1" parent="1">
          <mxGeometry x="850" y="150" width="180" height="70" as="geometry" />
        </mxCell>
        <mxCell id="Ce9-pHVRbCDx5V6s-bzh-38" value="" style="shape=tableRow;horizontal=0;startSize=0;swimlaneHead=0;swimlaneBody=0;strokeColor=inherit;top=0;left=0;bottom=0;right=0;collapsible=0;dropTarget=0;fillColor=none;points=[[0,0.5],[1,0.5]];portConstraint=eastwest;" vertex="1" parent="Ce9-pHVRbCDx5V6s-bzh-37">
          <mxGeometry y="30" width="180" height="40" as="geometry" />
        </mxCell>
        <mxCell id="Ce9-pHVRbCDx5V6s-bzh-39" value="student_id&lt;div&gt;INT&lt;/div&gt;" style="shape=partialRectangle;html=1;whiteSpace=wrap;connectable=0;strokeColor=inherit;overflow=hidden;fillColor=none;top=0;left=0;bottom=0;right=0;pointerEvents=1;" vertex="1" parent="Ce9-pHVRbCDx5V6s-bzh-38">
          <mxGeometry width="90" height="40" as="geometry">
            <mxRectangle width="90" height="40" as="alternateBounds" />
          </mxGeometry>
        </mxCell>
        <mxCell id="Ce9-pHVRbCDx5V6s-bzh-40" value="course_id&lt;div&gt;INT&lt;/div&gt;" style="shape=partialRectangle;html=1;whiteSpace=wrap;connectable=0;strokeColor=inherit;overflow=hidden;fillColor=none;top=0;left=0;bottom=0;right=0;pointerEvents=1;" vertex="1" parent="Ce9-pHVRbCDx5V6s-bzh-38">
          <mxGeometry x="90" width="90" height="40" as="geometry">
            <mxRectangle width="90" height="40" as="alternateBounds" />
          </mxGeometry>
        </mxCell>
        <mxCell id="Ce9-pHVRbCDx5V6s-bzh-45" value="" style="endArrow=classic;startArrow=classic;html=1;rounded=0;edgeStyle=orthogonalEdgeStyle;exitX=0.796;exitY=1.079;exitDx=0;exitDy=0;exitPerimeter=0;" edge="1" parent="1" source="Ce9-pHVRbCDx5V6s-bzh-38" target="Ce9-pHVRbCDx5V6s-bzh-31">
          <mxGeometry width="50" height="50" relative="1" as="geometry">
            <mxPoint x="1080" y="260" as="sourcePoint" />
            <mxPoint x="1100" y="160" as="targetPoint" />
            <Array as="points">
              <mxPoint x="993" y="260" />
              <mxPoint x="1100" y="260" />
              <mxPoint x="1100" y="210" />
              <mxPoint x="1130" y="210" />
            </Array>
          </mxGeometry>
        </mxCell>
        <mxCell id="Ce9-pHVRbCDx5V6s-bzh-46" value="" style="endArrow=classic;startArrow=classic;html=1;rounded=0;edgeStyle=orthogonalEdgeStyle;entryX=0.228;entryY=1.109;entryDx=0;entryDy=0;entryPerimeter=0;" edge="1" parent="1" source="Ce9-pHVRbCDx5V6s-bzh-8" target="Ce9-pHVRbCDx5V6s-bzh-38">
          <mxGeometry width="50" height="50" relative="1" as="geometry">
            <mxPoint x="420" y="271" as="sourcePoint" />
            <mxPoint x="890" y="260" as="targetPoint" />
            <Array as="points">
              <mxPoint x="420" y="260" />
              <mxPoint x="891" y="260" />
            </Array>
          </mxGeometry>
        </mxCell>
        <mxCell id="Ce9-pHVRbCDx5V6s-bzh-48" value="trianer_course" style="shape=table;startSize=30;container=1;collapsible=0;childLayout=tableLayout;" vertex="1" parent="1">
          <mxGeometry x="1140" y="340" width="250" height="70" as="geometry" />
        </mxCell>
        <mxCell id="Ce9-pHVRbCDx5V6s-bzh-49" value="" style="shape=tableRow;horizontal=0;startSize=0;swimlaneHead=0;swimlaneBody=0;strokeColor=inherit;top=0;left=0;bottom=0;right=0;collapsible=0;dropTarget=0;fillColor=none;points=[[0,0.5],[1,0.5]];portConstraint=eastwest;" vertex="1" parent="Ce9-pHVRbCDx5V6s-bzh-48">
          <mxGeometry y="30" width="250" height="40" as="geometry" />
        </mxCell>
        <mxCell id="Ce9-pHVRbCDx5V6s-bzh-50" value="id_trainer" style="shape=partialRectangle;html=1;whiteSpace=wrap;connectable=0;strokeColor=inherit;overflow=hidden;fillColor=none;top=0;left=0;bottom=0;right=0;pointerEvents=1;" vertex="1" parent="Ce9-pHVRbCDx5V6s-bzh-49">
          <mxGeometry width="125" height="40" as="geometry">
            <mxRectangle width="125" height="40" as="alternateBounds" />
          </mxGeometry>
        </mxCell>
        <mxCell id="Ce9-pHVRbCDx5V6s-bzh-51" value="id_course" style="shape=partialRectangle;html=1;whiteSpace=wrap;connectable=0;strokeColor=inherit;overflow=hidden;fillColor=none;top=0;left=0;bottom=0;right=0;pointerEvents=1;" vertex="1" parent="Ce9-pHVRbCDx5V6s-bzh-49">
          <mxGeometry x="125" width="125" height="40" as="geometry">
            <mxRectangle width="125" height="40" as="alternateBounds" />
          </mxGeometry>
        </mxCell>
        <mxCell id="Ce9-pHVRbCDx5V6s-bzh-55" value="" style="endArrow=classic;startArrow=classic;html=1;rounded=0;edgeStyle=orthogonalEdgeStyle;entryX=0.16;entryY=0.992;entryDx=0;entryDy=0;entryPerimeter=0;" edge="1" parent="1" target="Ce9-pHVRbCDx5V6s-bzh-49">
          <mxGeometry width="50" height="50" relative="1" as="geometry">
            <mxPoint x="1490" y="415" as="sourcePoint" />
            <mxPoint x="1180" y="450" as="targetPoint" />
            <Array as="points">
              <mxPoint x="1470" y="415" />
              <mxPoint x="1470" y="430" />
              <mxPoint x="1180" y="430" />
            </Array>
          </mxGeometry>
        </mxCell>
        <mxCell id="Ce9-pHVRbCDx5V6s-bzh-58" value="" style="endArrow=classic;startArrow=classic;html=1;rounded=0;edgeStyle=orthogonalEdgeStyle;exitX=1;exitY=0.5;exitDx=0;exitDy=0;entryX=0.048;entryY=1;entryDx=0;entryDy=0;entryPerimeter=0;" edge="1" parent="1" source="Ce9-pHVRbCDx5V6s-bzh-49" target="Ce9-pHVRbCDx5V6s-bzh-31">
          <mxGeometry width="50" height="50" relative="1" as="geometry">
            <mxPoint x="1400" y="390" as="sourcePoint" />
            <mxPoint x="1090" y="140" as="targetPoint" />
            <Array as="points">
              <mxPoint x="1390" y="310" />
              <mxPoint x="1089" y="310" />
            </Array>
          </mxGeometry>
        </mxCell>
      </root>
    </mxGraphModel>
  </diagram>
</mxfile>
